<?xml version="1.0" encoding="utf-8"?>
<!-- Generator: Adobe Illustrator 24.2.0, SVG Export Plug-In . SVG Version: 6.00 Build 0)  -->
<svg version="1.1" xmlns="http://www.w3.org/2000/svg" xmlns:xlink="http://www.w3.org/1999/xlink" x="0px" y="0px"
	 viewBox="0 0 127.7 70.9" style="enable-background:new 0 0 127.7 70.9;" xml:space="preserve">
<g id="Guides_For_Artboard">
</g>
<g id="Layer_1">
	<g>
		<g>
			<path d="M0,0v70.9h127.7V0H0z M35.6,48.9c-6.9,0-14.9-3.5-14.9-13.3c0-9,6.3-13.5,14.9-13.5c2.6,0,5.2,0.6,7.7,1.3L42.7,29
				c-2.2-1.2-4.4-1.8-6.8-1.8c-4.9,0-8.1,3.6-8.1,8.4c0,5.1,3.6,8.2,8.7,8.2c2.3,0,4.6-0.6,6.5-1.3l0.3,5.4
				C41.3,48.3,39.1,48.9,35.6,48.9z M67.8,48.9c-6.9,0-14.9-3.5-14.9-13.3c0-9,6.3-13.5,14.9-13.5c2.6,0,5.2,0.6,7.7,1.3L74.9,29
				c-2.2-1.2-4.4-1.8-6.8-1.8c-4.9,0-8.1,3.6-8.1,8.4c0,5.1,3.6,8.2,8.7,8.2c2.3,0,4.6-0.6,6.5-1.3l0.3,5.4
				C73.6,48.3,71.4,48.9,67.8,48.9z M96.9,48.4H85.9v-26h11.9c4.8,0,8.4,2.1,8.4,6.6c0,3.3-1.7,5.1-4.6,6.1v0.1
				c3.5,0.7,5.2,2.6,5.2,5.7C107,47.1,101.5,48.4,96.9,48.4z M95,37.4h-2.1v6.1h2c2.5,0,5.2-0.4,5.2-3C100.1,37.7,97.4,37.4,95,37.4
				z M99.4,30c0-2.4-2.2-2.6-4.5-2.6h-2v5.4h1.9C97.1,32.7,99.4,32.2,99.4,30z"/>
		</g>
	</g>
</g>
</svg>
